<svg id="Layer_1" enable-background="new 0 0 256 256" height="32px" viewBox="0 0 256 256" width="32px" xmlns="http://www.w3.org/2000/svg"><g><g><path d="m237.747 93.686-75.433-75.433-151.315 151.313c-3.905 3.905-3.905 10.237 0 14.142l61.292 61.292c3.905 3.905 10.237 3.905 14.142 0z" fill="#ffe2e2"/><path d="m21.612 194.315-10.607-10.607c-3.91-3.91-3.91-10.232 0-14.142l151.314-151.314 10.607 10.607-151.314 151.314c-3.91 3.91-3.91 10.232 0 14.142z" fill="#ffefee"/><path d="m237.747 93.68-151.314 151.314c-3.91 3.91-10.232 3.91-14.142 0l-10.607-10.607c3.91 3.91 10.232 3.91 14.142 0l151.314-151.314z" fill="#ffcfcf"/><path d="m244.961 84.237-73.199-73.199c-3.956-3.956-10.37-3.956-14.327 0l-111.236 111.236c-3.956 3.956-3.956 10.37 0 14.327l73.199 73.199c3.956 3.956 10.37 3.956 14.327 0l111.236-111.236c3.956-3.957 3.956-10.371 0-14.327z" fill="#5fcdff"/><path d="m56.812 147.208-10.607-10.607c-3.96-3.96-3.967-10.373-.007-14.333l111.235-111.235c3.953-3.953 10.373-3.953 14.333.007l10.607 10.607c-3.96-3.96-10.38-3.96-14.333-.007l-111.235 111.235c-3.96 3.959-3.953 10.373.007 14.333z" fill="#73d7f9"/><path d="m244.966 98.566-111.235 111.235c-3.96 3.96-10.373 3.953-14.333-.007l-10.607-10.607c3.96 3.96 10.373 3.967 14.333.007l111.235-111.235c3.953-3.953 3.953-10.373-.007-14.333l10.607 10.607c3.96 3.96 3.96 10.38.007 14.333z" fill="#30b6ff"/><path d="m83.69 65.248h123.78v90.341h-123.78z" fill="#3193f3" transform="matrix(.707 .707 -.707 .707 120.717 -70.6)"/><path d="m61.945 64.457h90.34v15h-90.34z" fill="#35b1fc" transform="matrix(.707 -.707 .707 .707 -19.508 96.818)"/><g fill="#307fed" transform="matrix(.707 -.707 .707 .707 -51.372 173.744)"><path d="m138.872 141.383h90.34v15h-90.34z"/><path d="m138.872 141.383h90.34v15h-90.34z"/></g></g><g fill="#5f266d"><path d="m247.79 81.409-73.199-73.199c-5.522-5.522-14.46-5.523-19.983 0l-23.678 23.677s0 0-.001 0l-63.88 63.882c-.001.001-.001.001-.002.002l-23.676 23.676c-4.139 4.137-5.157 10.15-3.133 15.226l-32.067 32.066c-2.642 2.642-4.097 6.157-4.097 9.898s1.455 7.257 4.097 9.898l61.29 61.29c5.399 5.4 14.268 5.545 19.797 0l32.067-32.066c1.645.656 3.414 1.007 5.239 1.007 3.774 0 7.322-1.47 9.991-4.139l23.678-23.678c7.081-7.081 84.699-84.699 87.559-87.559 5.52-5.521 5.521-14.458-.002-19.981zm-90.387 99.056-81.869-81.868 58.224-58.224 81.869 81.868zm-73.806 61.709c-2.341 2.346-6.135 2.342-8.479-.004l-61.29-61.29c-1.131-1.131-1.754-2.638-1.754-4.242s.623-3.11 1.754-4.241l31.256-31.256 69.773 69.773zm47.3-35.202c-2.39 2.392-6.28 2.391-8.67 0l-73.2-73.199c-2.396-2.397-2.396-6.273 0-8.67l20.849-20.849 81.87 81.869zm111.237-111.237-20.85 20.85-81.87-81.869 20.849-20.85c2.39-2.39 6.28-2.391 8.671 0l73.199 73.199c2.39 2.391 2.39 6.28.001 8.67z"/><path d="m131.257 83.42c-.057-2.125-1.767-3.834-3.891-3.892l-17.612-.474c-2.246-.082-4.046 1.684-4.106 3.892s1.683 4.047 3.891 4.106l13.823.371.372 13.823c.057 2.125 1.766 3.834 3.891 3.892l13.823.371.371 13.823c.058 2.125 1.767 3.834 3.892 3.892l13.823.37.37 13.823c.058 2.125 1.767 3.834 3.892 3.892l17.612.474c.036.001.073.001.109.001 2.159 0 3.938-1.721 3.997-3.893.059-2.208-1.684-4.047-3.892-4.106l-13.823-.371-.37-13.823c-.058-2.125-1.767-3.834-3.892-3.892l-13.823-.37-.371-13.823c-.058-2.125-1.767-3.834-3.892-3.892l-13.822-.371z"/><path d="m95.692 208.155-1.533-1.465c-1.598-1.525-4.13-1.469-5.655.129-1.526 1.598-1.468 4.13.129 5.656l1.533 1.465c1.597 1.525 4.129 1.468 5.655-.129s1.468-4.129-.129-5.656z"/><path d="m73.192 186.656c-1.597-1.528-4.129-1.469-5.655.128-1.526 1.598-1.469 4.13.129 5.655l10.122 9.672c.774.741 1.77 1.108 2.763 1.108 1.054 0 2.106-.414 2.893-1.236 1.526-1.598 1.468-4.13-.129-5.655z"/></g></g></svg>