<?xml version="1.0" encoding="iso-8859-1"?>
<!-- Generator: Adobe Illustrator 19.0.0, SVG Export Plug-In . SVG Version: 6.00 Build 0)  -->
<svg version="1.1" id="Capa_1" xmlns="http://www.w3.org/2000/svg" xmlns:xlink="http://www.w3.org/1999/xlink" x="0px" y="0px" width='32px' height='32px'
	 viewBox="0 0 511.993 511.993" style="enable-background:new 0 0 511.993 511.993;" xml:space="preserve">
<g>
	<polygon style="fill:#FFAF46;" points="107.962,404.126 380.253,131.555 349.282,100.619 76.992,373.182 138.933,435.062 
		411.232,162.499 380.253,131.555 	"/>
	<polygon style="fill:#FFAF46;" points="386.409,63.449 349.282,100.619 380.253,131.555 380.253,131.555 380.253,131.555 
		411.232,162.499 448.359,125.338 	"/>
</g>
<polygon style="fill:#BEBEC2;" points="8.938,503.228 138.933,435.062 76.992,373.182 "/>
<path style="fill:#ACABB1;" d="M497.883,75.796c6.839-6.839,6.839-17.924,0.009-24.762c0,0,0,0-0.009-0.009l-37.179-37.135
	c-6.839-6.839-17.924-6.839-24.762-0.009c0,0,0,0-0.009,0.009l-49.516,49.569l61.95,61.88L497.883,75.796z"/>
<path style="fill:#231F20;" d="M504.109,44.834L466.887,7.69c-10.262-10.253-26.881-10.253-37.144,0L70.801,366.991
	c-0.35,0.438-0.665,0.902-0.928,1.401c-0.184,0.271-0.482,0.438-0.639,0.727L1.189,499.174c-2.242,4.282-0.595,9.579,3.686,11.821
	c2.548,1.331,5.586,1.331,8.134,0l129.994-68.176c0.289-0.149,0.455-0.447,0.718-0.622c0.499-0.263,0.963-0.578,1.401-0.937
	L504.109,81.978C514.371,71.724,514.371,55.096,504.109,44.834z M349.291,113.001l18.581,18.563L107.953,391.745l-18.581-18.572
	L349.291,113.001z M138.924,422.68l-18.581-18.563l259.918-260.181l18.589,18.572L138.924,422.68z M29.699,482.433l49.534-94.672
	l45.086,45.051L29.699,482.433z M411.224,150.118l-49.56-49.507l24.754-24.78l49.56,49.516L411.224,150.118z M491.684,69.561
	l-43.326,43.361l-49.56-49.516l43.326-43.299c3.415-3.415,8.966-3.415,12.381,0l37.17,37.117c3.415,3.415,3.415,8.958,0,12.372
	L491.684,69.561z"/>
<g>
</g>
<g>
</g>
<g>
</g>
<g>
</g>
<g>
</g>
<g>
</g>
<g>
</g>
<g>
</g>
<g>
</g>
<g>
</g>
<g>
</g>
<g>
</g>
<g>
</g>
<g>
</g>
<g>
</g>
</svg>
