<?xml version="1.0" encoding="iso-8859-1"?>
<!-- Generator: Adobe Illustrator 19.0.0, SVG Export Plug-In . SVG Version: 6.00 Build 0)  -->
<svg version="1.1" id="Capa_1" xmlns="http://www.w3.org/2000/svg" xmlns:xlink="http://www.w3.org/1999/xlink" x="0px" y="0px"
	 viewBox="0 0 488.173 488.173" style="enable-background:new 0 0 488.173 488.173;" xml:space="preserve">
<g>
	<g>
		<path d="M113.344,110.542C122.709,101.526,128,89.086,128,76.086v-24c0-26.51-21.49-48-48-48s-48,21.49-48,48v24
			c0,13,5.291,25.439,14.656,34.456C19.095,118.321,0.046,143.449,0,172.086c0,4.418,3.582,8,8,8h144c4.418,0,8-3.582,8-8
			C159.954,143.449,140.905,118.321,113.344,110.542z M110.814,43.934c-14.031-0.535-26.064-10.18-29.638-23.759
			C95.209,20.709,107.24,30.356,110.814,43.934z M64,24.534v7.072c0.009,8.369-5.687,15.666-13.808,17.688l-1.96,0.488
			C48.988,39.276,54.891,29.824,64,24.534z M48,66.334l6.08-1.52c10.376-2.613,18.923-9.948,23.08-19.808
			c9.035,9.619,21.643,15.076,34.84,15.08v16c0,17.673-14.327,32-32,32s-32-14.327-32-32V66.334z M16.664,164.086
			c3.935-23.08,23.923-39.971,47.336-40h32c23.413,0.029,43.401,16.92,47.336,40H16.664z"/>
	</g>
</g>
<g>
	<g>
		<path d="M248,140.086c-57.438,0-104,46.562-104,104s46.562,104,104,104s104-46.562,104-104
			C351.934,186.676,305.41,140.152,248,140.086z M208.568,165.526c-3.254,5.005-6.062,10.287-8.392,15.784
			c-3.44-1.056-6.72-2.24-9.856-3.52C195.865,172.954,201.996,168.834,208.568,165.526z M178.632,190.134
			c5.239,2.446,10.641,4.525,16.168,6.224c-3.671,12.944-5.777,26.282-6.272,39.728h-28.12
			C161.933,219.334,168.261,203.378,178.632,190.134z M160.408,252.086h28.12c0.495,13.446,2.601,26.784,6.272,39.728
			c-5.527,1.697-10.93,3.777-16.168,6.224C168.261,284.794,161.933,268.838,160.408,252.086z M190.32,310.382
			c3.136-1.28,6.416-2.464,9.856-3.52c2.33,5.497,5.138,10.779,8.392,15.784C201.996,319.339,195.865,315.219,190.32,310.382z
			 M240,330.486c-11.174-5.815-19.76-15.61-24.064-27.448c7.947-1.478,15.988-2.395,24.064-2.744V330.486z M240,284.302
			c-9.964,0.392-19.88,1.577-29.656,3.544c-3.344-11.649-5.301-23.652-5.832-35.76H240V284.302z M240,203.878v32.208h-35.488
			c0.531-12.11,2.489-24.116,5.832-35.768c9.775,1.974,19.692,3.162,29.656,3.552V203.878z M240,187.878
			c-8.076-0.347-16.117-1.261-24.064-2.736c4.302-11.841,12.889-21.639,24.064-27.456V187.878z M335.592,236.086h-28.12
			c-0.495-13.446-2.601-26.784-6.272-39.728c5.527-1.697,10.93-3.777,16.168-6.224C327.739,203.378,334.067,219.334,335.592,236.086
			z M305.688,177.79c-3.136,1.28-6.4,2.464-9.864,3.52c-2.33-5.497-5.138-10.779-8.392-15.784
			C294.006,168.836,300.139,172.956,305.688,177.79z M256,157.686c11.174,5.815,19.76,15.61,24.064,27.448
			c-7.947,1.478-15.988,2.395-24.064,2.744V157.686z M256,203.87c9.964-0.392,19.881-1.577,29.656-3.544
			c3.344,11.649,5.301,23.652,5.832,35.76H256V203.87z M256,330.486v-30.192c8.076,0.347,16.117,1.261,24.064,2.736
			C275.762,314.872,267.175,324.669,256,330.486z M256,284.302v-0.008v-32.208h35.488c-0.531,12.108-2.488,24.111-5.832,35.76
			C275.88,285.879,265.964,284.694,256,284.302z M287.432,322.646c3.254-5.005,6.062-10.287,8.392-15.784
			c3.44,1.056,6.72,2.24,9.856,3.52C300.135,315.219,294.004,319.339,287.432,322.646z M317.368,298.038
			c-5.238-2.447-10.641-4.527-16.168-6.224c3.671-12.944,5.777-26.282,6.272-39.728h28.12
			C334.067,268.838,327.739,284.794,317.368,298.038z"/>
	</g>
</g>
<g>
	<g>
		<path d="M441.344,414.542c9.365-9.017,14.656-21.456,14.656-34.456v-8.8c21.663-4.327,35.717-25.397,31.39-47.06
			s-25.397-35.717-47.06-31.39c-9.95,1.987-18.773,7.682-24.682,15.93c-2.527-0.434-5.084-0.661-7.648-0.68
			c-26.499,0.026-47.974,21.501-48,48v24c0,13,5.291,25.439,14.656,34.456c-27.561,7.779-46.61,32.906-46.656,61.544
			c0,4.418,3.582,8,8,8h144c4.418,0,8-3.582,8-8C487.954,447.449,468.905,422.321,441.344,414.542z M448,308.086
			c13.224-0.023,23.963,10.678,23.986,23.902c0.018,10.199-6.427,19.291-16.058,22.65c-0.518-16.661-9.642-31.861-24.104-40.152
			C436.217,310.391,441.994,308.105,448,308.086z M424.336,328.718c8.927,5.335,14.688,14.691,15.432,25.064h-0.024l-1.952-0.488
			c-0.741-0.2-1.468-0.448-2.176-0.744c-7.19-4.315-11.597-12.078-11.616-20.464C424.035,330.957,424.147,329.832,424.336,328.718z
			 M412.8,352.886c3.776,6.49,9.589,11.552,16.536,14.4c3.343,1.841,6.935,3.189,10.664,4v8.8
			c0.061,17.62-14.173,31.953-31.793,32.015c-13.981,0.049-26.365-9.011-30.551-22.351l27.032-27.04
			C407.7,359.703,410.416,356.413,412.8,352.886z M376,356.086c0.035-17.374,13.926-31.546,31.296-31.928
			c-1.647,10.322-6.52,19.858-13.92,27.24L376,368.774V356.086z M344.664,468.086c3.935-23.08,23.923-39.971,47.336-40h32
			c23.413,0.029,43.401,16.92,47.336,40H344.664z"/>
	</g>
</g>
<g>
	<g>
		<path d="M310.08,425.83C209.587,459.99,100.429,406.215,66.27,305.722c-11.804-34.727-13.425-72.106-4.67-107.724l-15.568-3.832
			C18.546,305.791,86.754,418.563,198.379,446.049c38.641,9.515,79.199,7.754,116.869-5.075L310.08,425.83z"/>
	</g>
</g>
<g>
	<g>
		<path d="M276.24,38.031c-9.358-1.288-18.794-1.938-28.24-1.944c-31.447-0.085-62.496,7.03-90.768,20.8l6.984,14.4
			c26.097-12.71,54.757-19.277,83.784-19.2c106.131,0.093,192.093,86.204,192,192.336c-0.008,8.703-0.606,17.395-1.792,26.016
			l15.848,2.176C469.732,158.733,390.121,53.707,276.24,38.031z"/>
	</g>
</g>
<g>
</g>
<g>
</g>
<g>
</g>
<g>
</g>
<g>
</g>
<g>
</g>
<g>
</g>
<g>
</g>
<g>
</g>
<g>
</g>
<g>
</g>
<g>
</g>
<g>
</g>
<g>
</g>
<g>
</g>
</svg>
